<svg xmlns="http://www.w3.org/2000/svg" width="156.642" height="153.922" viewBox="0 0 156.642 153.922">
  <g id="Group_577" data-name="Group 577" transform="translate(-311.792 -967.515)">
    <path id="Path_689" data-name="Path 689" d="M428.353,1010.294,422.78,996.84l-3.828-1.747-6.6,2.2-3.409-1.069a48.373,48.373,0,0,0-8.225-8.211l-1.068-3.411,2.2-6.611c-.673-1.474-1.075-2.354-1.747-3.828l-13.454-5.572-3.943,1.47-3.118,6.231c-1.168.612-2,1.046-3.168,1.657a48.416,48.416,0,0,0-11.621-.01l-3.167-1.654-3.114-6.224-3.943-1.47-13.454,5.572-1.748,3.828,2.2,6.6c-.394,1.257-.675,2.153-1.07,3.409a48.438,48.438,0,0,0-8.21,8.225l-3.411,1.068-6.611-2.2-3.828,1.748-5.573,13.453c.567,1.518.9,2.425,1.471,3.943l6.231,3.118,1.657,3.168a48.366,48.366,0,0,0-.01,11.621l-1.655,3.166-6.223,3.115-1.471,3.943,5.573,13.454,3.827,1.747,6.6-2.2,3.409,1.07a48.435,48.435,0,0,0,8.224,8.21c.395,1.258.675,2.152,1.069,3.411l-2.2,6.611c.672,1.473,1.075,2.354,1.747,3.828l13.454,5.572,3.942-1.471,3.119-6.23,3.167-1.657a48.42,48.42,0,0,0,11.621.01l3.167,1.654,3.115,6.224,3.943,1.471L400.1,1078.5c.672-1.473,1.075-2.354,1.747-3.828l-2.2-6.6,1.069-3.409a48.409,48.409,0,0,0,8.211-8.225l3.411-1.068,6.611,2.2,3.828-1.748,5.572-13.453-1.47-3.943-6.231-3.118-1.657-3.168a48.418,48.418,0,0,0,.01-11.621c.61-1.167,1.045-2,1.654-3.166l6.224-3.115C427.448,1012.719,427.786,1011.812,428.353,1010.294Z" fill="#2783ff" stroke="#000" stroke-miterlimit="10" stroke-width="2"/>
    <ellipse id="Ellipse_70" data-name="Ellipse 70" cx="33.964" cy="33.905" rx="33.964" ry="33.905" transform="translate(336.646 992.426)" fill="#fff" stroke="#000" stroke-miterlimit="10" stroke-width="2"/>
    <path id="Path_690" data-name="Path 690" d="M467.42,1090.824l-.311-7.859-1.613-1.6-3.757-.12-1.528-1.178a26.155,26.155,0,0,0-2.634-5.7c.035-.712.06-1.217.1-1.929l2.351-2.939c-.066-.872-.105-1.393-.171-2.266l-5.777-5.337-2.272.009-2.744,2.575-1.915.248a26.136,26.136,0,0,0-5.888-2.176l-1.3-1.43-.416-3.736-1.723-1.482-7.859.311-1.6,1.613-.12,3.757-1.179,1.528a26.175,26.175,0,0,0-5.7,2.634l-1.928-.1-2.939-2.35-2.266.17-5.338,5.777.009,2.273,2.576,2.744c.091.707.156,1.209.247,1.915a26.141,26.141,0,0,0-2.176,5.887l-1.43,1.3-3.735.416L402.9,1085.5l.311,7.859,1.613,1.6,3.757.119,1.528,1.179a26.112,26.112,0,0,0,2.634,5.7l-.1,1.928-2.351,2.939c.066.873.105,1.394.171,2.267l5.777,5.337,2.272-.009,2.745-2.575,1.914-.248a26.136,26.136,0,0,0,5.888,2.176l1.3,1.43.415,3.736,1.724,1.482,7.859-.311,1.6-1.613.119-3.757c.434-.564.744-.965,1.179-1.528a26.154,26.154,0,0,0,5.7-2.634l1.928.095,2.939,2.351,2.266-.171,5.338-5.777c0-.874-.006-1.4-.009-2.272l-2.575-2.744c-.092-.707-.157-1.209-.248-1.915a26.14,26.14,0,0,0,2.176-5.887l1.43-1.3,3.736-.416Z" fill="#60dfc8" stroke="#000" stroke-miterlimit="10" stroke-width="2"/>
    <ellipse id="Ellipse_71" data-name="Ellipse 71" cx="18.312" cy="18.344" rx="18.312" ry="18.344" transform="translate(411.653 1098.809) rotate(-69.727)" fill="#fff" stroke="#000" stroke-miterlimit="10" stroke-width="2"/>
    <g id="Group_575" data-name="Group 575">
      <path id="Path_691" data-name="Path 691" d="M434.75,1094.806c-2.227-.206-3.7-1.573-3.8-3.444h1.4a2.631,2.631,0,0,0,2.395,2.358v-5.184c-1.871-.505-3.818-1.047-3.818-3.593,0-1.946,1.441-3.368,3.818-3.481v-1.571h.824v1.59a3.654,3.654,0,0,1,3.593,3.163h-1.385a2.547,2.547,0,0,0-2.208-2.04v5c1.871.486,3.817,1.047,3.817,3.649a3.634,3.634,0,0,1-3.817,3.574v1.5h-.824Zm0-7.448v-4.81a2.3,2.3,0,0,0-2.489,2.339C432.261,1086.422,433.384,1086.964,434.75,1087.358Zm.824,1.421v4.978a2.41,2.41,0,0,0,2.507-2.451C438.081,1089.734,436.94,1089.191,435.574,1088.779Z"/>
    </g>
    <g id="Group_576" data-name="Group 576">
      <path id="Path_692" data-name="Path 692" d="M370.613,1031.571a5.24,5.24,0,1,1,5.24-5.239A5.239,5.239,0,0,1,370.613,1031.571Zm0-7.588a2.349,2.349,0,1,0,2.349,2.349h0A2.353,2.353,0,0,0,370.613,1023.983Z"/>
      <path id="Path_693" data-name="Path 693" d="M370.613,1004.44a1.445,1.445,0,0,1-1.445-1.446V1000.5a1.445,1.445,0,1,1,2.89,0v2.492A1.445,1.445,0,0,1,370.613,1004.44Z"/>
      <path id="Path_694" data-name="Path 694" d="M347.275,1027.777h-2.492a1.445,1.445,0,0,1,0-2.891h2.492a1.445,1.445,0,1,1,0,2.891Z"/>
      <path id="Path_695" data-name="Path 695" d="M370.613,1053.6a1.445,1.445,0,0,1-1.445-1.445v-2.492a1.445,1.445,0,1,1,2.89,0v2.492A1.445,1.445,0,0,1,370.613,1053.6Z"/>
      <path id="Path_696" data-name="Path 696" d="M396.441,1027.777h-2.5a1.445,1.445,0,1,1,0-2.891h2.492a1.445,1.445,0,0,1,0,2.891Z"/>
      <path id="Path_697" data-name="Path 697" d="M385.285,1034.455a1.437,1.437,0,0,1-.591-.132l-11.231-5.115a1.446,1.446,0,1,1,1.2-2.632h0l11.231,5.117a1.445,1.445,0,0,1-.6,2.762Z"/>
      <path id="Path_698" data-name="Path 698" d="M368.825,1024.437a1.445,1.445,0,0,1-1.276-.762l-9.4-17.518a1.446,1.446,0,0,1,2.548-1.366L370.1,1022.3a1.445,1.445,0,0,1-1.272,2.128Z"/>
    </g>
  </g>
</svg>
