<svg xmlns="http://www.w3.org/2000/svg" width="125.056" height="154.016" viewBox="0 0 125.056 154.016">
  <g id="Group_583" data-name="Group 583" transform="translate(-1159.999 -3685.99)">
    <path id="Path_699" data-name="Path 699" d="M195.451,1098.355a3.468,3.468,0,0,1-.774-.087c-.608-.13-60.754-14.05-60.754-80.051V971.68a3.618,3.618,0,0,1,2.345-3.388l57.908-21.715a3.674,3.674,0,0,1,2.548,0l57.908,21.715a3.618,3.618,0,0,1,2.345,3.388v46.537c0,66-60.146,79.929-60.754,80.058a3.935,3.935,0,0,1-.774.08Z" transform="translate(1027.076 2740.651)" fill="#2783ff" stroke="#000" stroke-miterlimit="10" stroke-width="2"/>
    <circle id="Ellipse_72" data-name="Ellipse 72" cx="31.61" cy="31.61" r="31.61" transform="translate(1190.918 3731.393)" fill="#fff" stroke="#000" stroke-miterlimit="10" stroke-width="2"/>
    <path id="Path_700" data-name="Path 700" d="M194.424,1039.707l9.286,8.476,18.6-18.754" transform="translate(1015.113 2723.688)" fill="none" stroke="#60dfc8" stroke-linecap="round" stroke-miterlimit="10" stroke-width="3"/>
  </g>
</svg>
